<svg id="Layer_2" data-name="Layer 2" xmlns="http://www.w3.org/2000/svg" viewBox="0 0 1020.47 396.85"><defs><style>.cls-1{fill:#b0d9c2;}.cls-1,.cls-2,.cls-3,.cls-4,.cls-5,.cls-6,.cls-7{stroke:#1d1d1b;}.cls-1,.cls-2,.cls-3,.cls-4,.cls-5,.cls-6,.cls-7,.cls-8{stroke-miterlimit:10;}.cls-1,.cls-2,.cls-6,.cls-7{stroke-width:0.5px;}.cls-2{fill:#94cdb6;}.cls-3,.cls-4,.cls-5,.cls-6,.cls-8{fill:none;}.cls-3,.cls-4,.cls-5{stroke-width:0.25px;}.cls-4{stroke-dasharray:12.45 12.45;}.cls-5{stroke-dasharray:11.99 11.99;}.cls-7{fill:#aba196;}.cls-8{stroke:#212a51;stroke-width:12px;}.cls-9{fill:#212a51;}.cls-10,.cls-11{font-size:14px;fill:#1d1d1b;}.cls-10{font-family:ArialMT, Arial;}.cls-11{font-family:Arial-ItalicMT, Arial;font-style:italic;}</style></defs><path class="cls-1" d="M309.5,63.05a23.26,23.26,0,0,0-3-3.48,22.87,22.87,0,0,0-11.16-5.89,26.76,26.76,0,0,0-3.55-.47l-27.65,26L273.38,125,281,130l19.7-17.86Z"/><path class="cls-2" d="M721,115.44s28.88,3.35,42.15,1.25c.51-.08,4-.64,8.75-1.27,1.52-.2,3.22-.4,5.18-.61a204.93,204.93,0,0,1,28.24-1.51,156.49,156.49,0,0,1,29.51,3.51l7.22-35.23c-21-5.57-36.59-10.18-47.28-13.46C791,67,785.27,65.18,777.1,62.85c-12.33-3.51-22.51-6.06-29.34-7.7q-55-9.24-111.42-14.21c-7.81-.47-19.71-1-34.3-.68-8.57.17-14.76.55-18.45.76-12.25.69-30.57,1.45-56.09,1.6V78.37h0a271.76,271.76,0,0,1,28.09,3c3.76.6,8.56,1.38,14.89,2.85a255.22,255.22,0,0,1,27,8.28c2.41.89,4.88,1.85,4.88,1.85,4.55,1.78,7.81,3.18,8.18,3.34.6.25,1.35.58,2.34,1,14.09,5.48,38,7.77,38,7.77,2.91.26,14.19,1.72,36.74,4.64C706.88,113.52,707.54,113.88,721,115.44Z"/><polyline class="cls-3" points="28.35 126.55 28.35 126.55 30.66 132.09"/><line class="cls-4" x1="35.46" y1="143.57" x2="129.12" y2="367.56"/><line class="cls-3" x1="131.52" y1="373.3" x2="133.84" y2="378.84"/><path class="cls-3" d="M133.84,378.84c1.88-.67,3.77-1.32,5.66-2"/><path class="cls-5" d="M150.85,373a1139.85,1139.85,0,0,1,724.45,1.92"/><path class="cls-3" d="M881,376.86l5.67,2"/><polyline class="cls-3" points="992.13 126.55 992.13 126.55 989.81 132.09"/><line class="cls-4" x1="985.01" y1="143.57" x2="891.35" y2="367.56"/><line class="cls-3" x1="888.95" y1="373.3" x2="886.63" y2="378.84"/><path class="cls-6" d="M994.7,120.4c-2.62.13-5.38.17-8.28,0a91.47,91.47,0,0,1-27.72-5.51"/><path class="cls-7" d="M994.7,120.4a146,146,0,0,1-20.33,6.08A159.15,159.15,0,0,1,942,129.86c-45.41.46-90.08-9.34-90.08-9.34-6.2-1.31-11.65-2.59-17.06-3.71l7.22-35.23Q901.4,95.82,958.7,114.94"/><path class="cls-6" d="M315.14,196.31c1.4-14.59,1.95-24.48,2.24-43.53"/><path class="cls-7" d="M317.32,156.6a84,84,0,0,1,3.31-34.45c4.13-13.11,8.38-18.9,9.6-20.33a45.18,45.18,0,0,1,15.25-11.3,51.57,51.57,0,0,1,15-4.55l20-2s8.82-.83,18.08-1.57c18-1.44,35.89-2.4,35.89-2.4,19.62-1.06,34.35-1.44,44.6-1.7,19.26-.48,28.89-.73,40.09-.32,2.93.11,5.71.24,8.38.39h0V42.62q-8.62-.1-17.26-.1A1430.55,1430.55,0,0,0,329.68,53.91h0a54.47,54.47,0,0,0-25.43,13.46c-10.42,9.5-14.35,20.2-17.5,28.8A95.26,95.26,0,0,0,281,130h0c0,3.61.08,7.17.12,10.74.18,15.92.42,36.23-1.13,51.95-1.62,16.53-8.86,65.1-46.3,102.78a149.4,149.4,0,0,1-32.76,24.85l.52-.17,19.18,29.57a190.82,190.82,0,0,0,39.76-31.6c44.52-46.44,52.35-102.6,54.77-121.85"/><path class="cls-6" d="M360.47,86q6.43-.69,13-1.33,12.69-1.24,25.09-2.24"/><path class="cls-8" d="M298.55,182.13A170,170,0,0,1,250.35,303"/><polygon class="cls-9" points="261.89 311.97 241.52 291.1 241.28 311.71 261.89 311.97"/><path class="cls-3" d="M298,54.42a59.91,59.91,0,0,0-7.93,10.07,61.1,61.1,0,0,0-8.47,22.59"/><path class="cls-3" d="M302.69,56.67a66.9,66.9,0,0,0-6.19,8,66.13,66.13,0,0,0-6.14,11.57"/><path class="cls-8" d="M386.7,100.12c19-2.45,39.35-4.43,61-5.64,18.1-1,35.38-1.4,51.76-1.3"/><polygon class="cls-9" points="497.52 78.73 497.46 107.89 512.07 93.35 497.52 78.73"/><path class="cls-8" d="M618.66,119.3c22.28,1.68,45.65,4.07,70,7.34q20.88,2.8,40.58,6.16"/><polygon class="cls-9" points="729.7 118.17 724.85 146.92 741.64 134.97 729.7 118.17"/><path class="cls-8" d="M128.7,115.21c17.6-5.87,37-11.44,58.1-16.22,15.78-3.57,30.86-6.32,45.1-8.44"/><polygon class="cls-9" points="125.86 100.82 135.27 128.42 116.77 119.32 125.86 100.82"/><polygon class="cls-9" points="227.81 76.59 232.16 105.42 244.4 88.83 227.81 76.59"/><path class="cls-8" d="M869.17,106.72c9.87,2.53,20.3,4.9,31.28,7a531.06,531.06,0,0,0,56.14,7.71"/><polygon class="cls-9" points="874.75 93 867.42 121.22 856.98 103.45 874.75 93"/><text class="cls-10" transform="translate(608.67 146.69) rotate(6.32)">Enhanced mantle drag</text><text class="cls-10" transform="translate(415.64 125.27) rotate(-3.06)">Mantle drag</text><text class="cls-10" transform="matrix(0.96, -0.29, 0.29, 0.96, 157.28, 200.57)">Slab suction</text><text class="cls-10" transform="translate(305.12 288.93) rotate(-65.49)">Slab pull</text><path class="cls-2" d="M291.81,53.21c-4.24-.27-8.75.39-14.87,1.24-1.76.24-3.45.52-5.09.84a22.12,22.12,0,0,1-14.61-4,20.66,20.66,0,0,1-5.43-5.94,4,4,0,0,1-1.91,1.09,3.85,3.85,0,0,1-2.54-.29,20.84,20.84,0,0,1-3,7.49,22.14,22.14,0,0,1-12.26,8.89c-2.86,1-7.15,2.44-12.31,4.52-3.46,1.39-5.46,2.3-7.34,3.1a148.63,148.63,0,0,1-18.64,6.22c-7.66,2.2-16.13,4.22-38.4,7.9-9.53,1.58-21.77,3.49-36.16,5.44q-47.37,13.5-93.35,30.13L50.27,179h-.14q34.15-12.27,69.13-22.75c24.62-6.56,37.35-17.13,45.14-23.06,6.44-4.91,10-7.64,15-10.17,14.5-7.48,28.91-3.5,33.79-1.78,13.08,4.61,3.64,1.32,22.21,8.83,12,4.87,23.15,9.05,28.24,9.14,2.64,0,6.11.77,10.91-4.8A12.82,12.82,0,0,1,281,130c-2.9-7.17-12-32.17-1-58.15A68.11,68.11,0,0,1,291.81,53.21Z"/><path class="cls-8" d="M281,130c-.2-7.94.26-22.3,6.4-35.59,7.23-15.64,16.38-24.79,23.9-30.69"/><polygon class="cls-9" points="301.23 53.11 318.24 76.8 321.57 56.45 301.23 53.11"/><text class="cls-10" transform="matrix(-0.16, -0.99, 0.99, -0.16, 269.08, 131.17)">I</text><text class="cls-10" transform="matrix(-0.09, -1, 1, -0.09, 268.43, 127.47)">n</text><text class="cls-10" transform="translate(267.79 119.89) rotate(-91.48)">t</text><text class="cls-10" transform="matrix(0.04, -1, 1, 0.04, 267.62, 116.16)">e</text><text class="cls-10" transform="matrix(0.11, -0.99, 0.99, 0.11, 267.99, 108.55)">r</text><text class="cls-10" transform="translate(268.52 104.04) rotate(-80.88)">f</text><text class="cls-10" transform="translate(269.06 100.33) rotate(-76.61)">a</text><text class="cls-10" transform="translate(270.82 92.96) rotate(-71.58)">c</text><text class="cls-10" transform="translate(272.93 86.53) rotate(-66.59)">e</text><text class="cls-10" transform="translate(276.03 79.54) rotate(-62.7)"> </text><text class="cls-10" transform="translate(277.76 76.17) rotate(-60.16)">f</text><text class="cls-10" transform="translate(279.63 72.9) rotate(-57.45)">r</text><text class="cls-10" transform="matrix(0.57, -0.82, 0.82, 0.57, 282.1, 69.05)">i</text><text class="cls-10" transform="translate(283.76 66.58) rotate(-51.99)">c</text><text class="cls-10" transform="matrix(0.66, -0.75, 0.75, 0.66, 288.02, 61.19)">t</text><text class="cls-10" transform="translate(290.53 58.33) rotate(-46.87)">i</text><text class="cls-10" transform="matrix(0.72, -0.69, 0.69, 0.72, 292.52, 56.11)">o</text><text class="cls-10" transform="translate(298.01 50.83) rotate(-39.77)">n</text><text class="cls-10" transform="translate(300.94 141.97) rotate(-85.69)">S</text><text class="cls-10" transform="translate(301.73 132.83) rotate(-81.56)">l</text><text class="cls-10" transform="translate(302.09 129.92) rotate(-77.93)">a</text><text class="cls-10" transform="translate(303.67 122.49) rotate(-72.68)">b</text><text class="cls-10" transform="translate(305.99 115.25) rotate(-68.73)"> </text><text class="cls-10" transform="translate(307.28 111.75) rotate(-64.75)">b</text><text class="cls-10" transform="translate(310.5 104.89) rotate(-59.49)">e</text><text class="cls-10" transform="translate(314.34 98.35) rotate(-54.38)">n</text><text class="cls-10" transform="translate(318.75 92.19) rotate(-49.48)">d</text><text class="cls-10" transform="matrix(0.69, -0.72, 0.72, 0.69, 323.76, 86.42)">i</text><text class="cls-10" transform="translate(325.78 84.23) rotate(-43.04)">n</text><text class="cls-10" transform="matrix(0.78, -0.63, 0.63, 0.78, 331.34, 79.02)">g</text><text class="cls-10" transform="matrix(0.99, 0.11, -0.11, 0.99, 869.13, 136.58)">GPE forces</text><text class="cls-11" transform="translate(619.17 73.01) rotate(7.02)">continental lithosphere</text><text class="cls-11" transform="translate(365.59 70.74) rotate(-3.27)">oceanic lithosphere</text><path class="cls-8" d="M149.22,109.69c11.86-3.57,24.5-7,37.86-10.09,12.15-2.83,23.85-5.17,35-7.1"/><polygon class="cls-9" points="146.93 95.28 155.33 123.2 137.17 113.44 146.93 95.28"/><polygon class="cls-9" points="217.75 78.57 222.67 107.31 234.57 90.48 217.75 78.57"/><text class="cls-10" transform="matrix(0.98, -0.21, 0.21, 0.98, 141.83, 82.4)">GPE forces</text><path class="cls-8" d="M118.47,185.39a244.93,244.93,0,0,1,70.3-27.1c27-5.77,38.75-3.21,47.44,1.69,3.18,1.8,14.62,8.5,18.63,22,3.17,10.7.78,22.63-6.09,32.84"/><polygon class="cls-9" points="260.99 222.69 238.77 203.81 240.44 224.36 260.99 222.69"/></svg>